ply
format ascii 1.0
element vertex 1259
property float x
property float y
property float z
property uchar red
property uchar green
property uchar blue
end_header
3.937500 4.500000 -9.600000 4 4 4 
4.000000 4.500000 -9.600000 4 4 4 
4.062500 4.500000 -9.600000 4 4 4 
4.125000 4.500000 -9.600000 4 4 4 
4.187500 4.500000 -9.600000 4 4 4 
4.250000 4.500000 -9.600000 4 4 4 
4.312500 4.500000 -9.600000 4 4 4 
4.375000 4.500000 -9.600000 4 4 4 
4.437500 4.500000 -9.600000 4 4 4 
4.500000 4.500000 -9.600000 4 4 4 
4.562500 4.500000 -9.600000 4 4 4 
4.625000 4.500000 -9.600000 4 4 4 
4.687500 4.500000 -9.600000 4 4 4 
4.750000 4.500000 -9.600000 4 4 4 
4.284746 3.905085 -8.330848 3 3 3 
4.252491 3.827243 -8.164784 3 3 3 
4.277228 3.801980 -8.110891 3 3 3 
4.315790 3.789474 -8.084210 3 3 3 
4.354098 3.777049 -8.057705 3 3 3 
4.406558 3.777049 -8.057705 3 3 3 
4.459016 3.777049 -8.057705 3 3 3 
4.496732 3.764706 -8.031373 3 3 3 
4.549020 3.764706 -8.031373 3 3 3 
4.586319 3.752443 -8.005212 3 3 3 
4.638436 3.752443 -8.005212 3 3 3 
4.690554 3.752443 -8.005212 3 3 3 
4.742671 3.752443 -8.005212 3 3 3 
4.794788 3.752443 -8.005212 3 3 3 
4.846906 3.752443 -8.005212 3 3 3 
4.915033 3.764706 -8.031373 3 3 3 
4.967320 3.764706 -8.031373 2 2 2 
3.937500 4.437500 -9.600000 26 26 26 
4.000000 4.437500 -9.600000 26 26 26 
4.062500 4.437500 -9.600000 26 26 26 
4.125000 4.437500 -9.600000 26 26 26 
4.187500 4.437500 -9.600000 26 26 26 
4.250000 4.437500 -9.600000 26 26 26 
4.312500 4.437500 -9.600000 26 26 26 
4.375000 4.437500 -9.600000 25 25 25 
4.437500 4.437500 -9.600000 25 25 25 
4.500000 4.437500 -9.600000 25 25 25 
4.562500 4.437500 -9.600000 25 25 25 
4.625000 4.437500 -9.600000 25 25 25 
4.687500 4.437500 -9.600000 25 25 25 
4.750000 4.437500 -9.600000 25 25 25 
4.270270 3.837838 -8.302703 24 24 24 
4.224422 3.749175 -8.110891 24 24 24 
4.263158 3.736842 -8.084210 24 24 24 
4.301640 3.724590 -8.057705 24 24 24 
4.339869 3.712418 -8.031373 24 24 24 
4.392157 3.712418 -8.031373 24 24 24 
4.444445 3.712418 -8.031373 24 24 24 
4.496732 3.712418 -8.031373 23 23 23 
4.534202 3.700326 -8.005212 23 23 23 
4.586319 3.700326 -8.005212 24 24 24 
4.623377 3.688312 -7.979221 22 22 22 
4.675324 3.688312 -7.979221 22 22 22 
4.727273 3.688312 -7.979221 22 22 22 
4.779221 3.688312 -7.979221 21 21 21 
4.831169 3.688312 -7.979221 21 21 21 
4.899023 3.700326 -8.005212 21 21 21 
4.967320 3.712418 -8.031373 17 17 17 
3.937500 4.375000 -9.600000 46 46 46 
4.000000 4.375000 -9.600000 46 46 46 
4.062500 4.375000 -9.600000 47 47 47 
4.125000 4.375000 -9.600000 46 46 46 
4.187500 4.375000 -9.600000 46 46 46 
4.250000 4.375000 -9.600000 46 46 46 
4.312500 4.375000 -9.600000 46 46 46 
4.375000 4.375000 -9.600000 46 46 46 
4.437500 4.375000 -9.600000 45 45 45 
4.500000 4.375000 -9.600000 45 45 45 
4.562500 4.375000 -9.600000 45 45 45 
4.625000 4.375000 -9.600000 45 45 45 
4.687500 4.375000 -9.600000 45 45 45 
4.750000 4.375000 -9.600000 45 45 45 
4.227425 3.745819 -8.219398 45 45 45 
4.210526 3.684211 -8.084210 45 45 45 
4.249180 3.672131 -8.057705 44 44 44 
4.287582 3.660131 -8.031373 44 44 44 
4.325733 3.648208 -8.005212 44 44 44 
4.377850 3.648208 -8.005212 44 44 44 
4.429967 3.648208 -8.005212 44 44 44 
4.482085 3.648208 -8.005212 44 44 44 
4.534202 3.648208 -8.005212 44 44 44 
4.571429 3.636364 -7.979221 43 43 43 
4.623377 3.636364 -7.979221 42 42 42 
4.660194 3.624595 -7.953398 42 42 42 
4.711974 3.624595 -7.953398 42 42 42 
4.763754 3.624595 -7.953398 42 42 42 
4.831169 3.636364 -7.979221 41 41 41 
4.883117 3.636364 -7.979221 40 40 40 
4.951140 3.648208 -8.005212 34 34 34 
3.937500 4.312500 -9.600000 46 46 46 
4.000000 4.312500 -9.600000 46 46 46 
4.062500 4.312500 -9.600000 47 47 47 
4.125000 4.312500 -9.600000 46 46 46 
4.187500 4.312500 -9.600000 46 46 46 
4.250000 4.312500 -9.600000 46 46 46 
4.312500 4.312500 -9.600000 46 46 46 
4.375000 4.312500 -9.600000 46 46 46 
4.437500 4.312500 -9.600000 46 46 46 
4.500000 4.312500 -9.600000 46 46 46 
4.562500 4.312500 -9.600000 46 46 46 
4.625000 4.312500 -9.600000 46 46 46 
4.687500 4.312500 -9.600000 46 46 46 
4.750000 4.312500 -9.600000 46 46 46 
4.538182 4.014545 -8.936728 46 46 46 
4.199336 3.667774 -8.164784 46 46 46 
4.196721 3.619672 -8.057705 45 45 45 
4.235294 3.607843 -8.031373 45 45 45 
4.259740 3.584416 -7.979221 45 45 45 
4.311688 3.584416 -7.979221 44 44 44 
4.363636 3.584416 -7.979221 45 45 45 
4.415585 3.584416 -7.979221 45 45 45 
4.482085 3.596091 -8.005212 45 45 45 
4.519481 3.584416 -7.979221 44 44 44 
4.571429 3.584416 -7.979221 44 44 44 
4.608414 3.572815 -7.953398 44 44 44 
4.660194 3.572815 -7.953398 44 44 44 
4.711974 3.572815 -7.953398 43 43 43 
4.748387 3.561290 -7.927742 43 43 43 
4.815534 3.572815 -7.953398 43 43 43 
4.883117 3.584416 -7.979221 42 42 42 
4.951140 3.596091 -8.005212 35 35 35 
4.000000 4.250000 -9.600000 47 47 47 
4.062500 4.250000 -9.600000 46 46 46 
4.125000 4.250000 -9.600000 47 47 47 
4.187500 4.250000 -9.600000 47 47 47 
4.250000 4.250000 -9.600000 46 46 46 
4.312500 4.250000 -9.600000 46 46 46 
4.375000 4.250000 -9.600000 46 46 46 
4.437500 4.250000 -9.600000 46 46 46 
4.500000 4.250000 -9.600000 46 46 46 
4.407547 4.105660 -9.273963 46 46 46 
4.467925 4.105660 -9.273963 46 46 46 
4.511278 4.090226 -9.239099 46 46 46 
4.631579 4.090226 -9.239099 46 46 46 
4.505415 3.927798 -8.872203 46 46 46 
4.199336 3.614618 -8.164784 46 46 46 
4.183007 3.555556 -8.031373 46 46 46 
4.221498 3.543974 -8.005212 45 45 45 
4.259740 3.532468 -7.979221 45 45 45 
4.297735 3.521036 -7.953398 45 45 45 
4.349514 3.521036 -7.953398 45 45 45 
4.415585 3.532468 -7.979221 44 44 44 
4.467533 3.532468 -7.979221 44 44 44 
4.519481 3.532468 -7.979221 44 44 44 
4.556634 3.521036 -7.953398 44 44 44 
4.608414 3.521036 -7.953398 44 44 44 
4.645161 3.509677 -7.927742 43 43 43 
4.696774 3.509677 -7.927742 43 43 43 
4.733119 3.498392 -7.902251 43 43 43 
4.815534 3.521036 -7.953398 43 43 43 
4.883117 3.532468 -7.979221 42 42 42 
4.000000 4.187500 -9.600000 49 49 49 
4.062500 4.187500 -9.600000 48 48 48 
4.125000 4.187500 -9.600000 47 47 47 
4.187500 4.187500 -9.600000 47 47 47 
4.250000 4.187500 -9.600000 46 46 46 
4.312500 4.187500 -9.600000 47 47 47 
4.375000 4.187500 -9.600000 47 47 47 
4.437500 4.187500 -9.600000 47 47 47 
4.500000 4.187500 -9.600000 47 47 47 
4.390977 4.030075 -9.239099 47 47 47 
4.434457 4.014981 -9.204494 46 46 46 
4.444445 3.970370 -9.102222 46 46 46 
4.571429 4.030075 -9.239099 46 46 46 
4.546125 3.955719 -9.068635 46 46 46 
4.505415 3.870036 -8.872203 46 46 46 
4.185431 3.549669 -8.137749 46 46 46 
4.169381 3.491857 -8.005212 46 46 46 
4.207792 3.480520 -7.979221 46 46 46 
4.218649 3.446945 -7.902251 46 46 46 
4.270096 3.446945 -7.902251 45 45 45 
4.321543 3.446945 -7.902251 45 45 45 
4.372990 3.446945 -7.902251 45 45 45 
4.438710 3.458065 -7.927742 45 45 45 
4.475884 3.446945 -7.902251 44 44 44 
4.498403 3.424920 -7.851758 44 44 44 
4.549521 3.424920 -7.851758 43 43 43 
4.585987 3.414013 -7.826752 43 43 43 
4.622222 3.403175 -7.801905 44 44 44 
4.673016 3.403175 -7.801905 44 44 44 
4.784566 3.446945 -7.902251 43 43 43 
4.867314 3.469256 -7.953398 42 42 42 
1.312500 4.125000 -9.600000 47 47 47 
1.375000 4.125000 -9.600000 46 46 46 
4.000000 4.125000 -9.600000 49 49 49 
4.062500 4.125000 -9.600000 48 48 48 
4.125000 4.125000 -9.600000 48 48 48 
4.187500 4.125000 -9.600000 48 48 48 
4.250000 4.125000 -9.600000 48 48 48 
4.312500 4.125000 -9.600000 48 48 48 
4.375000 4.125000 -9.600000 48 48 48 
4.437500 4.125000 -9.600000 47 47 47 
4.500000 4.125000 -9.600000 47 47 47 
4.374532 3.955056 -9.204494 47 47 47 
4.385185 3.911111 -9.102222 47 47 47 
4.395605 3.868132 -9.002198 47 47 47 
4.487085 3.896679 -9.068635 46 46 46 
4.512821 3.868132 -9.002198 46 46 46 
4.505415 3.812274 -8.872203 46 46 46 
4.185431 3.496689 -8.137749 47 47 47 
4.169381 3.439739 -8.005212 46 46 46 
4.167202 3.395498 -7.902251 46 46 46 
4.178344 3.363057 -7.826752 46 46 46 
4.229300 3.363057 -7.826752 46 46 46 
4.280255 3.363057 -7.826752 45 45 45 
4.331210 3.363057 -7.826752 45 45 45 
4.368254 3.352381 -7.801905 45 45 45 
4.405063 3.341772 -7.777215 45 45 45 
4.455696 3.341772 -7.777215 45 45 45 
4.492114 3.331230 -7.752682 44 44 44 
4.542587 3.331230 -7.752682 44 44 44 
4.593060 3.331230 -7.752682 44 44 44 
4.628931 3.320755 -7.728302 44 44 44 
4.723810 3.352381 -7.801905 43 43 43 
1.250000 4.062500 -9.600000 36 36 36 
1.312500 4.062500 -9.600000 38 38 38 
1.375000 4.062500 -9.600000 36 36 36 
3.937500 4.062500 -9.600000 50 50 50 
4.000000 4.062500 -9.600000 48 48 48 
4.062500 4.062500 -9.600000 47 47 47 
4.125000 4.062500 -9.600000 48 48 48 
4.187500 4.062500 -9.600000 48 48 48 
4.250000 4.062500 -9.600000 48 48 48 
4.312500 4.062500 -9.600000 48 48 48 
4.375000 4.062500 -9.600000 48 48 48 
4.437500 4.062500 -9.600000 47 47 47 
4.500000 4.062500 -9.600000 47 47 47 
4.342008 3.866171 -9.136060 47 47 47 
4.336997 3.809524 -9.002198 47 47 47 
4.395605 3.809524 -9.002198 47 47 47 
4.454213 3.809524 -9.002198 47 47 47 
4.512821 3.809524 -9.002198 46 46 46 
4.505415 3.754513 -8.872203 46 46 46 
4.185431 3.443709 -8.137749 46 46 46 
4.169381 3.387622 -8.005212 46 46 46 
4.127388 3.312102 -7.826752 46 46 46 
4.165080 3.301587 -7.801905 46 46 46 
4.202532 3.291139 -7.777215 46 46 46 
4.253165 3.291139 -7.777215 46 46 46 
4.303797 3.291139 -7.777215 45 45 45 
4.354430 3.291139 -7.777215 45 45 45 
4.391167 3.280757 -7.752682 46 46 46 
4.427673 3.270440 -7.728302 46 46 46 
4.477987 3.270440 -7.728302 45 45 45 
4.528302 3.270440 -7.728302 44 44 44 
4.578616 3.270440 -7.728302 44 44 44 
4.628931 3.270440 -7.728302 44 44 44 
4.679245 3.270440 -7.728302 44 44 44 
4.729560 3.270440 -7.728302 43 43 43 
1.250000 4.000000 -9.600000 34 34 34 
1.312500 4.000000 -9.600000 34 34 34 
1.375000 4.000000 -9.600000 32 32 32 
3.875000 4.000000 -9.600000 49 49 49 
3.937500 4.000000 -9.600000 49 49 49 
4.000000 4.000000 -9.600000 48 48 48 
4.062500 4.000000 -9.600000 47 47 47 
4.125000 4.000000 -9.600000 47 47 47 
4.187500 4.000000 -9.600000 48 48 48 
4.250000 4.000000 -9.600000 48 48 48 
4.312500 4.000000 -9.600000 48 48 48 
4.375000 4.000000 -9.600000 48 48 48 
4.437500 4.000000 -9.600000 48 48 48 
4.500000 4.000000 -9.600000 48 48 48 
4.325926 3.792593 -9.102222 47 47 47 
4.321168 3.737226 -8.969343 47 47 47 
4.379562 3.737226 -8.969343 46 46 46 
4.405797 3.710145 -8.904348 46 46 46 
4.512821 3.750916 -9.002198 46 46 46 
4.505415 3.696751 -8.872203 46 46 46 
4.185431 3.390728 -8.137749 46 46 46 
4.169381 3.335505 -8.005212 46 46 46 
4.114286 3.250794 -7.801905 46 46 46 
4.151899 3.240506 -7.777215 46 46 46 
4.189274 3.230284 -7.752682 46 46 46 
4.239748 3.230284 -7.752682 46 46 46 
4.290221 3.230284 -7.752682 46 46 46 
4.340694 3.230284 -7.752682 46 46 46 
4.377358 3.220126 -7.728302 46 46 46 
4.413793 3.210031 -7.704075 46 46 46 
4.463950 3.210031 -7.704075 46 46 46 
4.500000 3.200000 -7.680000 45 45 45 
4.550000 3.200000 -7.680000 45 45 45 
4.614420 3.210031 -7.704075 44 44 44 
4.664577 3.210031 -7.704075 44 44 44 
1.250000 3.937500 -9.600000 41 41 41 
1.312500 3.937500 -9.600000 40 40 40 
1.375000 3.937500 -9.600000 39 39 39 
3.937500 3.937500 -9.600000 49 49 49 
4.000000 3.937500 -9.600000 48 48 48 
4.062500 3.937500 -9.600000 48 48 48 
4.125000 3.937500 -9.600000 48 48 48 
4.187500 3.937500 -9.600000 48 48 48 
4.250000 3.937500 -9.600000 48 48 48 
4.312500 3.937500 -9.600000 48 48 48 
4.375000 3.937500 -9.600000 48 48 48 
4.437500 3.937500 -9.600000 47 47 47 
4.500000 3.937500 -9.600000 48 48 48 
4.325926 3.733333 -9.102222 48 48 48 
4.321168 3.678832 -8.969343 47 47 47 
4.363636 3.665455 -8.936728 47 47 47 
4.405797 3.652174 -8.904348 46 46 46 
4.480000 3.665455 -8.936728 46 46 46 
4.505415 3.638989 -8.872203 46 46 46 
4.199336 3.348837 -8.164784 46 46 46 
4.129032 3.251613 -7.927742 46 46 46 
4.101266 3.189873 -7.777215 46 46 46 
4.138801 3.179811 -7.752682 46 46 46 
4.176101 3.169811 -7.728302 46 46 46 
4.226415 3.169811 -7.728302 46 46 46 
4.276730 3.169811 -7.728302 46 46 46 
4.327044 3.169811 -7.728302 46 46 46 
4.363636 3.159875 -7.704075 45 45 45 
4.400000 3.150000 -7.680000 46 46 46 
4.450000 3.150000 -7.680000 46 46 46 
4.500000 3.150000 -7.680000 45 45 45 
4.550000 3.150000 -7.680000 45 45 45 
4.650000 3.150000 -7.680000 44 44 44 
1.250000 3.875000 -9.600000 44 44 44 
1.312500 3.875000 -9.600000 43 43 43 
1.375000 3.875000 -9.600000 42 42 42 
3.937500 3.875000 -9.600000 48 48 48 
4.000000 3.875000 -9.600000 47 47 47 
4.062500 3.875000 -9.600000 48 48 48 
4.125000 3.875000 -9.600000 48 48 48 
4.187500 3.875000 -9.600000 47 47 47 
4.250000 3.875000 -9.600000 48 48 48 
4.312500 3.875000 -9.600000 48 48 48 
4.375000 3.875000 -9.600000 48 48 48 
4.437500 3.875000 -9.600000 47 47 47 
4.500000 3.875000 -9.600000 47 47 47 
4.294117 3.647059 -9.035295 47 47 47 
4.305455 3.607273 -8.936728 47 47 47 
4.363636 3.607273 -8.936728 46 46 46 
4.389892 3.581228 -8.872203 47 47 47 
4.400000 3.542857 -8.777143 46 46 46 
4.318339 3.432526 -8.503806 46 46 46 
4.157895 3.263158 -8.084210 46 46 46 
4.076433 3.159236 -7.826752 46 46 46 
4.088328 3.129338 -7.752682 46 46 46 
4.125786 3.119497 -7.728302 46 46 46 
4.163009 3.109718 -7.704075 46 46 46 
4.213166 3.109718 -7.704075 46 46 46 
4.263323 3.109718 -7.704075 46 46 46 
4.313479 3.109718 -7.704075 46 46 46 
4.363636 3.109718 -7.704075 45 45 45 
4.413793 3.109718 -7.704075 45 45 45 
4.450000 3.100000 -7.680000 46 46 46 
4.500000 3.100000 -7.680000 45 45 45 
4.550000 3.100000 -7.680000 45 45 45 
4.650000 3.100000 -7.680000 45 45 45 
1.187500 3.812500 -9.600000 39 39 39 
1.250000 3.812500 -9.600000 37 37 37 
1.312500 3.812500 -9.600000 39 39 39 
1.375000 3.812500 -9.600000 38 38 38 
1.437500 3.812500 -9.600000 35 35 35 
4.000000 3.812500 -9.600000 47 47 47 
4.062500 3.812500 -9.600000 47 47 47 
4.125000 3.812500 -9.600000 47 47 47 
4.187500 3.812500 -9.600000 47 47 47 
4.250000 3.812500 -9.600000 48 48 48 
4.312500 3.812500 -9.600000 48 48 48 
4.375000 3.812500 -9.600000 48 48 48 
4.437500 3.812500 -9.600000 47 47 47 
4.330827 3.669173 -9.239099 46 46 46 
4.262774 3.562044 -8.969343 46 46 46 
4.228571 3.485714 -8.777143 46 46 46 
4.240283 3.448763 -8.684099 46 46 46 
4.266667 3.424562 -8.623158 46 46 46 
4.262976 3.377163 -8.503806 46 46 46 
4.230508 3.308475 -8.330848 46 46 46 
4.077419 3.148387 -7.927742 47 47 47 
4.037855 3.078864 -7.752682 46 46 46 
4.075472 3.069182 -7.728302 46 46 46 
4.112853 3.059561 -7.704075 46 46 46 
4.150000 3.050000 -7.680000 46 46 46 
4.200000 3.050000 -7.680000 46 46 46 
4.263323 3.059561 -7.704075 46 46 46 
4.450000 3.050000 -7.680000 46 46 46 
3.636364 2.464647 -6.206061 45 45 45 
3.676768 2.464647 -6.206061 45 45 45 
3.717172 2.464647 -6.206061 45 45 45 
3.757576 2.464647 -6.206061 45 45 45 
1.062500 3.750000 -9.600000 40 40 40 
1.125000 3.750000 -9.600000 41 41 41 
1.187500 3.750000 -9.600000 39 39 39 
1.250000 3.750000 -9.600000 35 35 35 
1.312500 3.750000 -9.600000 36 36 36 
1.375000 3.750000 -9.600000 34 34 34 
1.437500 3.750000 -9.600000 32 32 32 
4.125000 3.750000 -9.600000 47 47 47 
4.187500 3.750000 -9.600000 47 47 47 
4.250000 3.750000 -9.600000 48 48 48 
4.312500 3.750000 -9.600000 48 48 48 
4.375000 3.750000 -9.600000 46 46 46 
4.437500 3.750000 -9.600000 47 47 47 
4.250923 3.542435 -9.068635 46 46 46 
4.171429 3.428571 -8.777143 46 46 46 
4.154386 3.368421 -8.623158 46 46 46 
4.137931 3.310345 -8.474483 46 46 46 
4.150171 3.276450 -8.387713 46 46 46 
4.148148 3.232323 -8.274748 46 46 46 
4.105263 3.157895 -8.084210 46 46 46 
4.077419 3.096774 -7.927742 46 46 46 
4.076433 3.057325 -7.826752 46 46 46 
4.088328 3.028391 -7.752682 46 46 46 
4.125786 3.018868 -7.728302 46 46 46 
4.163009 3.009404 -7.704075 46 46 46 
4.200000 3.000000 -7.680000 46 46 46 
3.586902 2.418136 -6.190428 46 46 46 
3.618090 2.412060 -6.174875 45 45 45 
3.649123 2.406015 -6.159399 44 44 44 
3.680000 2.400000 -6.144000 44 44 44 
3.720000 2.400000 -6.144000 44 44 44 
3.750623 2.394015 -6.128678 44 44 44 
1.062500 3.687500 -9.600000 50 50 50 
1.125000 3.687500 -9.600000 51 51 51 
1.187500 3.687500 -9.600000 49 49 49 
1.250000 3.687500 -9.600000 43 43 43 
1.312500 3.687500 -9.600000 42 42 42 
1.375000 3.687500 -9.600000 41 41 41 
1.437500 3.687500 -9.600000 42 42 42 
4.187500 3.687500 -9.600000 47 47 47 
4.250000 3.687500 -9.600000 48 48 48 
4.312500 3.687500 -9.600000 47 47 47 
4.375000 3.687500 -9.600000 46 46 46 
4.191882 3.483395 -9.068635 47 47 47 
4.085106 3.347518 -8.714894 46 46 46 
4.069686 3.289199 -8.563066 46 46 46 
4.082758 3.255172 -8.474483 46 46 46 
4.081633 3.210884 -8.359184 46 46 46 
4.094276 3.178451 -8.274748 46 46 46 
4.079470 3.125828 -8.137749 46 46 46 
4.091803 3.095082 -8.057705 46 46 46 
4.090615 3.055016 -7.953398 46 46 46 
4.129032 3.045161 -7.927742 46 46 46 
4.167202 3.035370 -7.902251 46 46 46 
4.245955 3.055016 -7.953398 46 46 46 
3.546599 2.377834 -6.190428 46 46 46 
3.577889 2.371859 -6.174875 45 45 45 
3.609023 2.365915 -6.159399 45 45 45 
3.640000 2.360000 -6.144000 45 45 45 
3.680000 2.360000 -6.144000 45 45 45 
3.710723 2.354115 -6.128678 44 44 44 
3.750623 2.354115 -6.128678 44 44 44 
3.790524 2.354115 -6.128678 38 38 38 
1.062500 3.625000 -9.600000 57 57 57 
1.125000 3.625000 -9.600000 58 58 58 
1.187500 3.625000 -9.600000 58 58 58 
1.250000 3.625000 -9.600000 56 56 56 
1.312500 3.625000 -9.600000 56 56 56 
1.375000 3.625000 -9.600000 54 54 54 
1.437500 3.625000 -9.600000 55 55 55 
4.250000 3.625000 -9.600000 48 48 48 
4.312500 3.625000 -9.600000 46 46 46 
4.179104 3.462687 -9.170150 47 47 47 
3.972028 3.244755 -8.593007 47 47 47 
4.000000 3.222222 -8.533334 46 46 46 
4.013746 3.189003 -8.445361 46 46 46 
3.986532 3.124579 -8.274748 46 46 46 
3.986711 3.083056 -8.164784 46 46 46 
4.026490 3.072848 -8.137749 46 46 46 
4.052631 3.052632 -8.084210 46 46 46 
4.091803 3.042623 -8.057705 46 46 46 
4.117264 3.022801 -8.005212 46 46 46 
4.142395 3.003236 -7.953398 46 46 46 
4.747253 3.399267 -9.002198 46 46 46 
3.515152 2.343434 -6.206061 46 46 46 
3.537688 2.331658 -6.174875 46 46 46 
3.568922 2.325814 -6.159399 45 45 45 
3.609023 2.325814 -6.159399 45 45 45 
3.640000 2.320000 -6.144000 45 45 45 
3.680000 2.320000 -6.144000 45 45 45 
3.710723 2.314214 -6.128678 45 45 45 
3.750623 2.314214 -6.128678 44 44 44 
3.800000 2.320000 -6.144000 39 39 39 
1.062500 3.562500 -9.600000 68 68 68 
1.187500 3.562500 -9.600000 68 68 68 
1.250000 3.562500 -9.600000 68 68 68 
1.312500 3.562500 -9.600000 67 67 67 
1.375000 3.562500 -9.600000 66 66 66 
1.437500 3.562500 -9.600000 66 66 66 
4.134831 3.415730 -9.204494 47 47 47 
3.888889 3.166667 -8.533334 48 48 48 
3.890411 3.123288 -8.416439 47 47 47 
3.905085 3.091525 -8.330848 46 46 46 
3.919463 3.060403 -8.246981 47 47 47 
3.933555 3.029900 -8.164784 46 46 46 
3.960396 3.009901 -8.110891 46 46 46 
3.986885 2.990164 -8.057705 47 47 47 
4.026144 2.980392 -8.031373 47 47 47 
4.065146 2.970684 -8.005212 46 46 46 
4.117264 2.970684 -8.005212 46 46 46 
3.515152 2.303030 -6.206061 46 46 46 
3.546599 2.297229 -6.190428 46 46 46 
3.577889 2.291457 -6.174875 46 46 46 
3.609023 2.285714 -6.159399 45 45 45 
3.720000 2.280000 -6.144000 45 45 45 
3.750623 2.274314 -6.128678 45 45 45 
3.790524 2.274314 -6.128678 39 39 39 
0.828479 2.899676 -7.953398 73 73 73 
0.880259 2.899676 -7.953398 73 73 73 
1.312500 3.500000 -9.600000 70 70 70 
1.375000 3.500000 -9.600000 70 70 70 
3.833333 3.111111 -8.533334 47 47 47 
3.835616 3.068493 -8.416439 47 47 47 
3.850847 3.037288 -8.330848 46 46 46 
3.840000 2.986667 -8.192000 46 46 46 
3.880399 2.976744 -8.164784 47 47 47 
3.907591 2.957096 -8.110891 46 46 46 
3.921569 2.928105 -8.031373 47 47 47 
3.960912 2.918567 -8.005212 46 46 46 
4.013029 2.918567 -8.005212 46 46 46 
4.025806 2.890323 -7.927742 46 46 46 
4.090615 2.899676 -7.953398 46 46 46 
3.524051 2.268354 -6.221772 46 46 46 
3.546599 2.256927 -6.190428 46 46 46 
3.586902 2.256927 -6.190428 46 46 46 
3.760000 2.240000 -6.144000 45 45 45 
3.790524 2.234414 -6.128678 39 39 39 
0.828479 2.847896 -7.953398 57 57 57 
0.880259 2.847896 -7.953398 57 57 57 
3.833333 3.055556 -8.533334 47 47 47 
3.796610 2.983051 -8.330848 46 46 46 
3.786667 2.933333 -8.192000 46 46 46 
3.827243 2.923588 -8.164784 43 43 43 
3.867550 2.913907 -8.137749 43 43 43 
3.894737 2.894737 -8.084210 45 45 45 
3.908795 2.866450 -8.005212 47 47 47 
3.960912 2.866450 -8.005212 47 47 47 
3.987055 2.847896 -7.953398 47 47 47 
4.000000 2.820513 -7.876924 47 47 47 
4.025478 2.802548 -7.826752 47 47 47 
3.546599 2.216625 -6.190428 46 46 46 
3.568922 2.205514 -6.159399 46 46 46 
3.609023 2.205514 -6.159399 46 46 46 
3.750623 2.194514 -6.128678 45 45 45 
3.781095 2.189055 -6.113433 39 39 39 
0.828479 2.796117 -7.953398 34 34 34 
0.880259 2.796117 -7.953398 34 34 34 
3.796610 2.928813 -8.330848 46 46 46 
3.774086 2.870432 -8.164784 48 48 48 
3.814569 2.860927 -8.137749 47 47 47 
3.842105 2.842105 -8.084210 40 40 40 
3.894737 2.842105 -8.084210 42 42 42 
3.908795 2.814332 -8.005212 45 45 45 
3.935275 2.796117 -7.953398 46 46 46 
3.961415 2.778135 -7.902251 46 46 46 
3.974522 2.751592 -7.826752 46 46 46 
4.000000 2.734177 -7.777215 46 46 46 
4.050633 2.734177 -7.777215 46 46 46 
3.546599 2.176322 -6.190428 47 47 47 
3.568922 2.165414 -6.159399 47 47 47 
3.600000 2.160000 -6.144000 47 47 47 
3.640000 2.160000 -6.144000 47 47 47 
3.741293 2.149254 -6.113433 48 48 48 
3.781095 2.149254 -6.113433 42 42 42 
0.828479 2.744337 -7.953398 47 47 47 
0.869010 2.709265 -7.851758 47 47 47 
0.932039 2.744337 -7.953398 47 47 47 
1.437500 3.312500 -9.600000 46 46 46 
1.500000 3.312500 -9.600000 47 47 47 
3.774086 2.817276 -8.164784 56 56 56 
3.801980 2.798680 -8.110891 45 45 45 
3.842105 2.789474 -8.084210 36 36 36 
3.894737 2.789474 -8.084210 46 46 46 
3.908795 2.762215 -8.005212 56 56 56 
3.935275 2.744337 -7.953398 59 59 59 
3.961415 2.726688 -7.902251 60 60 60 
3.974522 2.700637 -7.826752 62 62 62 
4.000000 2.683544 -7.777215 63 63 63 
4.050633 2.683544 -7.777215 64 64 64 
3.560000 2.120000 -6.144000 76 76 76 
3.600000 2.120000 -6.144000 77 77 77 
3.630923 2.114713 -6.128678 78 78 78 
3.670823 2.114713 -6.128678 80 80 80 
3.741293 2.109453 -6.113433 81 81 81 
3.771712 2.104218 -6.098263 72 72 72 
0.817891 2.658147 -7.851758 55 55 55 
0.863492 2.641270 -7.801905 54 54 54 
0.920128 2.658147 -7.851758 53 53 53 
0.965079 2.641270 -7.801905 53 53 53 
1.012658 2.632911 -7.777215 53 53 53 
1.312500 3.250000 -9.600000 53 53 53 
1.375000 3.250000 -9.600000 53 53 53 
1.437500 3.250000 -9.600000 53 53 53 
1.500000 3.250000 -9.600000 53 53 53 
1.562500 3.250000 -9.600000 52 52 52 
3.801980 2.745875 -8.110891 30 30 30 
3.842105 2.736842 -8.084210 39 39 39 
3.881967 2.727869 -8.057705 59 59 59 
3.908795 2.710098 -8.005212 81 81 81 
3.948052 2.701299 -7.979221 99 99 99 
3.974194 2.683871 -7.927742 100 100 100 
3.987221 2.658147 -7.851758 102 102 102 
4.012699 2.641270 -7.801905 103 103 103 
4.063492 2.641270 -7.801905 103 103 103 
3.560000 2.080000 -6.144000 103 103 103 
3.591022 2.074813 -6.128678 105 105 105 
3.621891 2.069652 -6.113433 103 103 103 
3.661691 2.069652 -6.113433 102 102 102 
3.701493 2.069652 -6.113433 98 98 98 
3.741293 2.069652 -6.113433 93 93 93 
3.771712 2.064516 -6.098263 83 83 83 
0.817891 2.607029 -7.851758 55 55 55 
0.863492 2.590476 -7.801905 55 55 55 
0.920128 2.607029 -7.851758 54 54 54 
0.965079 2.590476 -7.801905 55 55 55 
1.012658 2.582278 -7.777215 54 54 54 
1.087379 2.640777 -7.953398 54 54 54 
1.500000 3.187500 -9.600000 53 53 53 
1.562500 3.187500 -9.600000 53 53 53 
3.894737 2.684211 -8.084210 56 56 56 
3.908795 2.657980 -8.005212 84 84 84 
3.948052 2.649351 -7.979221 99 99 99 
3.987055 2.640777 -7.953398 100 100 100 
4.000000 2.615385 -7.876924 97 97 97 
4.038339 2.607029 -7.851758 97 97 97 
3.591022 2.034913 -6.128678 87 87 87 
3.630923 2.034913 -6.128678 86 86 86 
3.661691 2.029851 -6.113433 86 86 86 
3.710723 2.034913 -6.128678 81 81 81 
0.833876 2.605863 -8.005212 61 61 61 
0.869010 2.555911 -7.851758 60 60 60 
0.935065 2.597403 -7.979221 60 60 60 
0.983819 2.588997 -7.953398 60 60 60 
1.035599 2.588997 -7.953398 60 60 60 
1.101639 2.622951 -8.057705 60 60 60 
3.960912 2.605863 -8.005212 87 87 87 
4.000000 2.597403 -7.979221 85 85 85 
4.025806 2.580645 -7.927742 78 78 78 
4.077419 2.580645 -7.927742 81 81 81 
3.630923 1.995013 -6.128678 94 94 94 
3.670823 1.995013 -6.128678 92 92 92 
3.720000 2.000000 -6.144000 90 90 90 
0.842105 2.578947 -8.084210 67 67 67 
0.885993 2.553746 -8.005212 67 67 67 
0.947368 2.578947 -8.084210 67 67 67 
1.000000 2.578947 -8.084210 67 67 67 
1.049180 2.570492 -8.057705 67 67 67 
1.101639 2.570492 -8.057705 66 66 66 
4.065146 2.553746 -8.005212 102 102 102 
0.842105 2.526316 -8.084210 54 54 54 
0.891803 2.518033 -8.057705 53 53 53 
0.947368 2.526316 -8.084210 53 53 53 
1.000000 2.526316 -8.084210 52 52 52 
1.049180 2.518033 -8.057705 52 52 52 
1.101639 2.518033 -8.057705 52 52 52 
1.154098 2.518033 -8.057705 51 51 51 
0.839344 2.465574 -8.057705 26 26 26 
0.888889 2.457516 -8.031373 26 26 26 
0.944262 2.465574 -8.057705 26 26 26 
0.996721 2.465574 -8.057705 25 25 25 
1.045752 2.457516 -8.031373 25 25 25 
1.090909 2.441558 -7.979221 25 25 25 
1.154098 2.465574 -8.057705 25 25 25 
1.206557 2.465574 -8.057705 25 25 25 
1.190476 2.238095 -7.314286 25 25 25 
1.230769 2.224852 -7.271006 25 25 25 
1.281899 2.231454 -7.292582 25 25 25 
1.329377 2.231454 -7.292582 25 25 25 
1.389222 2.251497 -7.358084 25 25 25 
1.445783 2.265060 -7.402410 25 25 25 
1.503030 2.278788 -7.447273 25 25 25 
1.551515 2.278788 -7.447273 25 25 25 
1.600000 2.278788 -7.447273 25 25 25 
1.643505 2.271903 -7.424774 25 25 25 
1.686747 2.265060 -7.402410 20 20 20 
1.719403 2.244776 -7.336120 11 11 11 
0.839344 2.413115 -8.057705 21 21 21 
0.888889 2.405229 -8.031373 21 21 21 
0.941176 2.405229 -8.031373 21 21 21 
0.993464 2.405229 -8.031373 21 21 21 
1.038961 2.389610 -7.979221 21 21 21 
1.083871 2.374193 -7.927742 21 21 21 
1.135484 2.374193 -7.927742 21 21 21 
1.153605 2.307210 -7.704075 21 21 21 
1.142857 2.190476 -7.314286 21 21 21 
1.183432 2.177515 -7.271006 21 21 21 
1.227139 2.171092 -7.249558 21 21 21 
1.274336 2.171092 -7.249558 21 21 21 
1.329377 2.183976 -7.292582 21 21 21 
1.380952 2.190476 -7.314286 21 21 21 
1.437126 2.203593 -7.358084 21 21 21 
1.498489 2.223565 -7.424774 21 21 21 
1.551515 2.230303 -7.447273 22 22 22 
1.600000 2.230303 -7.447273 21 21 21 
1.643505 2.223565 -7.424774 21 21 21 
1.676647 2.203593 -7.358084 15 15 15 
1.714286 2.190476 -7.314286 1 1 1 
1.761905 2.190476 -7.314286 0 0 0 
1.820359 2.203593 -7.358084 0 0 0 
0.888889 2.352941 -8.031373 21 21 21 
0.941176 2.352941 -8.031373 19 19 19 
0.993464 2.352941 -8.031373 18 18 18 
1.042345 2.345277 -8.005212 20 20 20 
1.087379 2.330097 -7.953398 21 21 21 
1.153605 2.257053 -7.704075 21 21 21 
1.142857 2.142857 -7.314286 20 20 20 
1.183432 2.130177 -7.271006 20 20 20 
1.230769 2.130177 -7.271006 20 20 20 
1.278106 2.130177 -7.271006 20 20 20 
1.329377 2.136498 -7.292582 19 19 19 
1.380952 2.142857 -7.314286 17 17 17 
1.437126 2.155689 -7.358084 15 15 15 
1.503030 2.181818 -7.447273 15 15 15 
1.565749 2.201835 -7.515597 18 18 18 
1.614679 2.201835 -7.515597 20 20 20 
1.648485 2.181818 -7.447273 16 16 16 
1.681682 2.162162 -7.380180 6 6 6 
1.719403 2.149254 -7.336120 0 0 0 
1.767164 2.149254 -7.336120 0 0 0 
1.820359 2.155689 -7.358084 0 0 0 
1.873874 2.162162 -7.380180 0 0 0 
1.921922 2.162162 -7.380180 0 0 0 
1.969970 2.162162 -7.380180 0 0 0 
2.011976 2.155689 -7.358084 0 0 0 
1.142857 2.095238 -7.314286 16 16 16 
1.183432 2.082840 -7.271006 17 17 17 
1.230769 2.082840 -7.271006 9 9 9 
1.278106 2.082840 -7.271006 11 11 11 
1.333333 2.095238 -7.314286 9 9 9 
1.380952 2.095238 -7.314286 5 5 5 
1.441441 2.114114 -7.380180 8 8 8 
1.516820 2.152905 -7.515597 10 10 10 
1.575385 2.166154 -7.561846 7 7 7 
1.624615 2.166154 -7.561846 8 8 8 
1.663609 2.152905 -7.515597 14 14 14 
1.691843 2.126888 -7.424774 5 5 5 
1.724551 2.107785 -7.358084 1 1 1 
1.767164 2.101493 -7.336120 1 1 1 
1.820359 2.107785 -7.358084 0 0 0 
1.873874 2.114114 -7.380180 0 0 0 
1.921922 2.114114 -7.380180 0 0 0 
1.969970 2.114114 -7.380180 0 0 0 
2.011976 2.107785 -7.358084 0 0 0 
1.142857 2.047619 -7.314286 30 30 30 
1.186944 2.041543 -7.292582 40 40 40 
1.230769 2.035503 -7.271006 16 16 16 
1.281899 2.041543 -7.292582 15 15 15 
1.333333 2.047619 -7.314286 14 14 14 
1.385075 2.053731 -7.336120 18 18 18 
1.450151 2.078550 -7.424774 33 33 33 
1.530864 2.123457 -7.585186 32 32 32 
1.585139 2.130031 -7.608669 18 18 18 
1.634675 2.130031 -7.608669 16 16 16 
1.673846 2.116923 -7.561846 33 33 33 
1.707317 2.097561 -7.492683 22 22 22 
1.734940 2.072289 -7.402410 25 25 25 
1.777778 2.066066 -7.380180 24 24 24 
1.825826 2.066066 -7.380180 8 8 8 
1.885196 2.078550 -7.424774 0 0 0 
1.190476 2.000000 -7.314286 74 74 74 
1.234421 1.994065 -7.292582 55 55 55 
1.285714 2.000000 -7.314286 60 60 60 
1.337313 2.005970 -7.336120 59 59 59 
1.401813 2.030211 -7.424774 56 56 56 
1.486068 2.080495 -7.608669 50 50 50 
1.540373 2.086957 -7.632298 46 46 46 
1.590062 2.086957 -7.632298 53 53 53 
1.639752 2.086957 -7.632298 62 62 62 
1.684211 2.080495 -7.608669 61 61 61 
1.723077 2.067692 -7.561846 35 35 35 
1.756098 2.048780 -7.492683 58 58 58 
1.804878 2.048780 -7.492683 58 58 58 
1.600000 2.050000 -7.680000 65 65 65 
1.650000 2.050000 -7.680000 79 79 79 
1.694704 2.043614 -7.656075 71 71 71 
1.739130 2.037267 -7.632298 38 38 38 
1.783282 2.030960 -7.608669 62 62 62 
1.650000 2.000000 -7.680000 80 80 80 
1.700000 2.000000 -7.680000 75 75 75 
1.744548 1.993770 -7.656075 42 42 42 
4.892087 0.978417 -8.840288 116 116 116 
4.846715 0.934307 -8.969343 116 116 116 
4.749116 0.904594 -8.684099 116 116 116 
4.805654 0.904594 -8.684099 113 113 113 
4.931900 0.917563 -8.808602 110 110 110 
5.007194 0.920863 -8.840288 114 114 114 
4.776978 0.863309 -8.840288 102 102 102 
4.765957 0.851064 -8.714894 112 112 112 
4.822695 0.851064 -8.714894 107 107 107 
4.931900 0.860215 -8.808602 91 91 91 
4.989247 0.860215 -8.808602 100 100 100 
5.064748 0.863309 -8.840288 116 116 116 
4.788321 0.817518 -8.969343 113 113 113 
4.776978 0.805755 -8.840288 106 106 106 
4.800000 0.800000 -8.777143 114 114 114 
4.857143 0.800000 -8.777143 111 111 111 
4.914286 0.800000 -8.777143 103 103 103 
4.971428 0.800000 -8.777143 109 109 109 
5.028572 0.800000 -8.777143 118 118 118 
4.805861 0.761905 -9.002198 117 117 117 
4.776978 0.748201 -8.840288 108 108 108 
4.800000 0.742857 -8.777143 109 109 109 
4.839858 0.740214 -8.745908 109 109 109 
4.862191 0.734982 -8.684099 108 108 108 
4.936170 0.737589 -8.714894 107 107 107 
4.975265 0.734982 -8.684099 112 112 112 
5.049645 0.737589 -8.714894 117 117 117 
4.794224 0.693141 -8.872203 98 98 98 
4.782918 0.683274 -8.745908 92 92 92 
4.805654 0.678445 -8.684099 92 92 92 
4.845070 0.676056 -8.653522 96 96 96 
4.901409 0.676056 -8.653522 97 97 97 
4.940351 0.673684 -8.623158 105 105 105 
4.996491 0.673684 -8.623158 114 114 114 
4.776978 0.633094 -8.840288 110 110 110 
4.749116 0.621908 -8.684099 108 108 108 
4.788733 0.619718 -8.653522 110 110 110 
4.845070 0.619718 -8.653522 112 112 112 
4.901409 0.619718 -8.653522 112 112 112 
4.923077 0.615385 -8.593007 114 114 114 
4.979021 0.615385 -8.593007 116 116 116 
4.794224 0.577617 -8.872203 115 115 115 
4.749116 0.565371 -8.684099 111 111 111 
4.788733 0.563380 -8.653522 117 117 117 
4.845070 0.563380 -8.653522 118 118 118 
4.901409 0.563380 -8.653522 117 117 117 
4.923077 0.559441 -8.593007 115 115 115 
4.979021 0.559441 -8.593007 116 116 116 
5.034965 0.559441 -8.593007 118 118 118 
4.841329 0.531365 -9.068635 114 114 114 
4.846715 0.525547 -8.969343 115 115 115 
4.800000 0.514286 -8.777143 113 113 113 
4.805654 0.508834 -8.684099 118 118 118 
4.845070 0.507042 -8.653522 120 120 120 
4.901409 0.507042 -8.653522 119 119 119 
4.940351 0.505263 -8.623158 117 117 117 
4.979021 0.503497 -8.593007 117 117 117 
5.034965 0.503497 -8.593007 121 121 121 
4.841329 0.472325 -9.068635 113 113 113 
4.882353 0.470588 -9.035295 118 118 118 
4.905109 0.467153 -8.969343 117 117 117 
4.892087 0.460432 -8.840288 117 117 117 
4.914286 0.457143 -8.777143 119 119 119 
4.971428 0.457143 -8.777143 119 119 119 
4.975265 0.452297 -8.684099 117 117 117 
5.014084 0.450704 -8.653522 118 118 118 
5.161290 0.458781 -8.808602 121 121 121 
4.859259 0.414815 -9.102222 110 110 110 
4.900369 0.413284 -9.068635 115 115 115 
4.941176 0.411765 -9.035295 117 117 117 
4.981685 0.410256 -9.002198 112 112 112 
5.021898 0.408759 -8.969343 114 114 114 
5.061818 0.407273 -8.936728 118 118 118 
5.046595 0.401434 -8.808602 117 117 117 
5.103943 0.401434 -8.808602 118 118 118 
5.062500 0.375000 -9.600000 117 117 117 
4.895523 0.358209 -9.170150 111 111 111 
4.918519 0.355556 -9.102222 115 115 115 
4.959410 0.354244 -9.068635 117 117 117 
5.000000 0.352941 -9.035295 114 114 114 
5.058824 0.352941 -9.035295 114 114 114 
5.098901 0.351648 -9.002198 118 118 118 
5.120000 0.349091 -8.936728 117 117 117 
5.216117 0.351648 -9.002198 117 117 117 
5.062500 0.312500 -9.600000 117 117 117 
5.125000 0.312500 -9.600000 111 111 111 
4.955224 0.298507 -9.170150 116 116 116 
4.996283 0.297398 -9.136060 115 115 115 
5.037037 0.296296 -9.102222 114 114 114 
5.096296 0.296296 -9.102222 111 111 111 
5.117647 0.294118 -9.035295 113 113 113 
5.157509 0.293040 -9.002198 115 115 115 
5.235294 0.294118 -9.035295 117 117 117 
5.125000 0.250000 -9.600000 113 113 113 
5.011321 0.241509 -9.273963 116 116 116 
5.071698 0.241509 -9.273963 114 114 114 
5.093633 0.239700 -9.204494 114 114 114 
5.115242 0.237918 -9.136060 112 112 112 
5.117647 0.235294 -9.035295 113 113 113 
5.176471 0.235294 -9.035295 115 115 115 
5.235294 0.235294 -9.035295 117 117 117 
5.187500 0.187500 -9.600000 118 118 118 
5.250000 0.187500 -9.600000 118 118 118 
5.132075 0.181132 -9.273963 119 119 119 
5.153558 0.179775 -9.204494 120 120 120 
5.155556 0.177778 -9.102222 119 119 119 
5.176471 0.176471 -9.035295 117 117 117 
5.312500 0.125000 -9.600000 120 120 120 
5.134328 0.119403 -9.170150 120 120 120 
5.174721 0.118959 -9.136060 119 119 119 
5.375000 0.062500 -9.600000 120 120 120 
3.295681 -1.009967 -8.164784 3 3 3 
3.315789 -1.000000 -8.084210 26 26 26 
3.263158 -1.052632 -8.084210 3 3 3 
3.272727 -1.038961 -7.979221 25 25 25 
3.324675 -1.038961 -7.979221 55 55 55 
3.353952 -1.154639 -8.445361 12 12 12 
3.273927 -1.108911 -8.110891 3 3 3 
3.294118 -1.098039 -8.031373 20 20 20 
3.324675 -1.090909 -7.979221 42 42 42 
3.300699 -1.230769 -8.593007 20 20 20 
3.356643 -1.230769 -8.593007 16 16 16 
3.365517 -1.213793 -8.474483 7 7 7 
3.328859 -1.181208 -8.246981 2 2 2 
3.326733 -1.161716 -8.110891 15 15 15 
3.379538 -1.161716 -8.110891 29 29 29 
3.290780 -1.304965 -8.714894 22 22 22 
3.300699 -1.286713 -8.593007 21 21 21 
3.356643 -1.286713 -8.593007 19 19 19 
3.365517 -1.268965 -8.474483 13 13 13 
3.385665 -1.255973 -8.387713 3 3 3 
3.440273 -1.255973 -8.387713 16 16 16 
3.316364 -1.396364 -8.936728 48 48 48 
3.326165 -1.376344 -8.808602 32 32 32 
3.335689 -1.356890 -8.684099 24 24 24 
3.368421 -1.347368 -8.623158 26 26 26 
3.412587 -1.342657 -8.593007 25 25 25 
3.420690 -1.324138 -8.474483 22 22 22 
3.475862 -1.324138 -8.474483 31 31 31 
3.518900 -1.319588 -8.445361 42 42 42 
3.586207 -1.324138 -8.474483 47 47 47 
3.604095 -1.310580 -8.387713 51 51 51 
3.318518 -1.481481 -9.102222 62 62 62 
3.316364 -1.454545 -8.936728 48 48 48 
3.350180 -1.444043 -8.872203 44 44 44 
3.359431 -1.423488 -8.745908 38 38 38 
3.404255 -1.418440 -8.714894 43 43 43 
3.424562 -1.403509 -8.623158 45 45 45 
3.432526 -1.384083 -8.503806 46 46 46 
3.487889 -1.384083 -8.503806 48 48 48 
3.518900 -1.374570 -8.445361 49 49 49 
3.573883 -1.374570 -8.445361 50 50 50 
3.628866 -1.374570 -8.445361 50 50 50 
3.873684 -1.403509 -8.623158 48 48 48 
3.916084 -1.398601 -8.593007 48 48 48 
3.985965 -1.403509 -8.623158 47 47 47 
3.271375 -1.546468 -9.136060 58 58 58 
3.294118 -1.529412 -9.035295 58 58 58 
3.328467 -1.518248 -8.969343 57 57 57 
3.350180 -1.501805 -8.872203 56 56 56 
3.395684 -1.496403 -8.840288 56 56 56 
3.404255 -1.475177 -8.714894 57 57 57 
3.424562 -1.459649 -8.623158 58 58 58 
3.432526 -1.439446 -8.503806 59 59 59 
3.487889 -1.439446 -8.503806 59 59 59 
3.531034 -1.434483 -8.474483 58 58 58 
3.573883 -1.429553 -8.445361 58 58 58 
3.616438 -1.424658 -8.416439 57 57 57 
3.683849 -1.429553 -8.445361 55 55 55 
3.777778 -1.444444 -8.533334 54 54 54 
3.833333 -1.444444 -8.533334 54 54 54 
3.888889 -1.444444 -8.533334 56 56 56 
3.972028 -1.454545 -8.593007 58 58 58 
4.027972 -1.454545 -8.593007 59 59 59 
3.259259 -1.600000 -9.102222 61 61 61 
3.294118 -1.588235 -9.035295 62 62 62 
3.328467 -1.576642 -8.969343 62 62 62 
3.350180 -1.559567 -8.872203 62 62 62 
3.395684 -1.553957 -8.840288 62 62 62 
3.404255 -1.531915 -8.714894 62 62 62 
3.412587 -1.510489 -8.593007 62 62 62 
3.432526 -1.494810 -8.503806 62 62 62 
3.475862 -1.489655 -8.474483 61 61 61 
3.518900 -1.484536 -8.445361 61 61 61 
3.573883 -1.484536 -8.445361 61 61 61 
3.616438 -1.479452 -8.416439 60 60 60 
3.683849 -1.484536 -8.445361 58 58 58 
3.751724 -1.489655 -8.474483 56 56 56 
3.820069 -1.494810 -8.503806 55 55 55 
3.888889 -1.500000 -8.533334 58 58 58 
3.944444 -1.500000 -8.533334 61 61 61 
4.000000 -1.500000 -8.533334 62 62 62 
3.235294 -1.647059 -9.035295 64 64 64 
3.294118 -1.647059 -9.035295 63 63 63 
3.316364 -1.629091 -8.936728 63 63 63 
3.338130 -1.611511 -8.840288 63 63 63 
3.383512 -1.605735 -8.808602 64 64 64 
3.380282 -1.577465 -8.653522 63 63 63 
3.388889 -1.555556 -8.533334 63 63 63 
3.420690 -1.544828 -8.474483 63 63 63 
3.463917 -1.539519 -8.445361 64 64 64 
3.506849 -1.534247 -8.416439 63 63 63 
3.549488 -1.529010 -8.387713 64 64 64 
3.604095 -1.529010 -8.387713 64 64 64 
3.671233 -1.534247 -8.416439 62 62 62 
3.738832 -1.539519 -8.445361 60 60 60 
3.806896 -1.544828 -8.474483 58 58 58 
3.875432 -1.550173 -8.503806 59 59 59 
3.944444 -1.555556 -8.533334 62 62 62 
4.000000 -1.555556 -8.533334 64 64 64 
3.235294 -1.705882 -9.035295 64 64 64 
3.294118 -1.705882 -9.035295 63 63 63 
3.316364 -1.687273 -8.936728 63 63 63 
3.338130 -1.669065 -8.840288 63 63 63 
3.383512 -1.663082 -8.808602 63 63 63 
3.380282 -1.633803 -8.653522 63 63 63 
3.388889 -1.611111 -8.533334 63 63 63 
3.397260 -1.589041 -8.416439 62 62 62 
3.440273 -1.583618 -8.387713 63 63 63 
3.494880 -1.583618 -8.387713 63 63 63 
3.549488 -1.583618 -8.387713 63 63 63 
3.604095 -1.583618 -8.387713 64 64 64 
3.683849 -1.594502 -8.445361 63 63 63 
3.751724 -1.600000 -8.474483 61 61 61 
3.806896 -1.600000 -8.474483 59 59 59 
3.888889 -1.611111 -8.533334 59 59 59 
3.944444 -1.611111 -8.533334 60 60 60 
3.271375 -1.784387 -9.136060 66 66 66 
3.294118 -1.764706 -9.035295 65 65 65 
3.352941 -1.764706 -9.035295 65 65 65 
3.362319 -1.739130 -8.904348 65 65 65 
3.383512 -1.720430 -8.808602 65 65 65 
3.380282 -1.690141 -8.653522 64 64 64 
3.388889 -1.666667 -8.533334 64 64 64 
3.397260 -1.643836 -8.416439 64 64 64 
3.440273 -1.638225 -8.387713 64 64 64 
3.494880 -1.638225 -8.387713 64 64 64 
3.549488 -1.638225 -8.387713 64 64 64 
3.604095 -1.638225 -8.387713 65 65 65 
3.437500 -1.937500 -9.600000 65 65 65 
3.330855 -1.843866 -9.136060 65 65 65 
3.352941 -1.823529 -9.035295 65 65 65 
3.411765 -1.823529 -9.035295 65 65 65 
3.407942 -1.790614 -8.872203 66 66 66 
3.392226 -1.752650 -8.684099 66 66 66 
3.400697 -1.728223 -8.563066 65 65 65 
3.397260 -1.698630 -8.416439 65 65 65 
3.440273 -1.692833 -8.387713 65 65 65 
3.494880 -1.692833 -8.387713 65 65 65 
3.561644 -1.698630 -8.416439 65 65 65 
3.437500 -2.000000 -9.600000 64 64 64 
3.500000 -2.000000 -9.600000 65 65 65 
3.415730 -1.917603 -9.204494 66 66 66 
3.449814 -1.903346 -9.136060 65 65 65 
3.470588 -1.882353 -9.035295 61 61 61 
3.440860 -1.835125 -8.808602 65 65 65 
3.436620 -1.802817 -8.653522 67 67 67 
3.420690 -1.765517 -8.474483 66 66 66 
3.463917 -1.759450 -8.445361 66 66 66 
3.506849 -1.753425 -8.416439 66 66 66 
3.573883 -1.759450 -8.445361 66 66 66 
3.437500 -2.062500 -9.600000 65 65 65 
3.500000 -2.062500 -9.600000 65 65 65 
3.562500 -2.062500 -9.600000 66 66 66 
3.625000 -2.062500 -9.600000 57 57 57 
3.509294 -1.962825 -9.136060 39 39 39 
3.503650 -1.927007 -8.969343 61 61 61 
3.498208 -1.892473 -8.808602 67 67 67 
3.444444 -1.833333 -8.533334 66 66 66 
3.475862 -1.820690 -8.474483 65 65 65 
3.518900 -1.814433 -8.445361 66 66 66 
3.598616 -1.826990 -8.503806 66 66 66 
3.437500 -2.125000 -9.600000 66 66 66 
3.500000 -2.125000 -9.600000 65 65 65 
3.562500 -2.125000 -9.600000 66 66 66 
3.625000 -2.125000 -9.600000 61 61 61 
3.687500 -2.125000 -9.600000 51 51 51 
3.542435 -2.007380 -9.068635 63 63 63 
3.498208 -1.949821 -8.808602 66 66 66 
3.456446 -1.895470 -8.563066 66 66 66 
3.487889 -1.882353 -8.503806 65 65 65 
3.531034 -1.875862 -8.474483 65 65 65 
3.437500 -2.187500 -9.600000 66 66 66 
3.500000 -2.187500 -9.600000 66 66 66 
3.562500 -2.187500 -9.600000 66 66 66 
3.625000 -2.187500 -9.600000 66 66 66 
3.687500 -2.187500 -9.600000 65 65 65 
3.542435 -2.066421 -9.068635 66 66 66 
3.498208 -2.007169 -8.808602 65 65 65 
3.456446 -1.951220 -8.563066 64 64 64 
3.487889 -1.937716 -8.503806 64 64 64 
3.531034 -1.931034 -8.474483 64 64 64 
3.500000 -2.250000 -9.600000 65 65 65 
3.562500 -2.250000 -9.600000 66 66 66 
3.625000 -2.250000 -9.600000 66 66 66 
3.687500 -2.250000 -9.600000 66 66 66 
3.542435 -2.125461 -9.068635 64 64 64 
3.498208 -2.064516 -8.808602 64 64 64 
3.456446 -2.006969 -8.563066 63 63 63 
3.487889 -1.993080 -8.503806 62 62 62 
3.518900 -1.979381 -8.445361 62 62 62 
3.573883 -1.979381 -8.445361 63 63 63 
3.562500 -2.312500 -9.600000 63 63 63 
3.625000 -2.312500 -9.600000 63 63 63 
3.687500 -2.312500 -9.600000 61 61 61 
3.542435 -2.184502 -9.068635 62 62 62 
3.498208 -2.121864 -8.808602 62 62 62 
3.468531 -2.069930 -8.593007 61 61 61 
3.500000 -2.055556 -8.533334 62 62 62 
3.518900 -2.034364 -8.445361 61 61 61 
3.573883 -2.034364 -8.445361 62 62 62 
3.591837 -2.013605 -8.359184 62 62 62 
2.602871 -1.416268 -5.879426 61 61 61 
3.625000 -2.375000 -9.600000 56 56 56 
3.687500 -2.375000 -9.600000 41 41 41 
3.555556 -2.251852 -9.102222 57 57 57 
3.510791 -2.187050 -8.840288 62 62 62 
3.468531 -2.125874 -8.593007 62 62 62 
3.500000 -2.111111 -8.533334 63 63 63 
3.518900 -2.089347 -8.445361 63 63 63 
3.573883 -2.089347 -8.445361 62 62 62 
3.591837 -2.068027 -8.359184 63 63 63 
3.597316 -2.040268 -8.246981 61 61 61 
2.602871 -1.454545 -5.879426 61 61 61 
3.625000 -2.437500 -9.600000 56 56 56 
3.687500 -2.437500 -9.600000 45 45 45 
3.555556 -2.311111 -9.102222 59 59 59 
3.523466 -2.252707 -8.872203 63 63 63 
3.480702 -2.189474 -8.623158 64 64 64 
3.512195 -2.174216 -8.563066 65 65 65 
3.543253 -2.159169 -8.503806 64 64 64 
3.573883 -2.144330 -8.445361 63 63 63 
3.628866 -2.144330 -8.445361 63 63 63 
3.625000 -2.500000 -9.600000 60 60 60 
3.687500 -2.500000 -9.600000 60 60 60 
3.568773 -2.379182 -9.136060 62 62 62 
3.536232 -2.318841 -8.904348 64 64 64 
3.505300 -2.261484 -8.684099 66 66 66 
3.524476 -2.237762 -8.593007 67 67 67 
3.555556 -2.222222 -8.533334 65 65 65 
3.611111 -2.222222 -8.533334 62 62 62 
3.625000 -2.562500 -9.600000 57 57 57 
3.687500 -2.562500 -9.600000 58 58 58 
3.582090 -2.447761 -9.170150 61 61 61 
3.549091 -2.385455 -8.936728 65 65 65 
3.517730 -2.326241 -8.714894 67 67 67 
3.561837 -2.318021 -8.684099 67 67 67 
3.605634 -2.309859 -8.653522 65 65 65 
3.687500 -2.625000 -9.600000 56 56 56 
3.750000 -2.625000 -9.600000 62 62 62 
3.641791 -2.507463 -9.170150 66 66 66 
3.607273 -2.443636 -8.936728 68 68 68 
3.600000 -2.400000 -8.777143 67 67 67 
2.875000 -2.875000 -9.600000 0 0 0 
2.937500 -2.875000 -9.600000 0 0 0 
3.000000 -2.875000 -9.600000 0 0 0 
3.062500 -2.875000 -9.600000 0 0 0 
2.625000 -2.937500 -9.600000 0 0 0 
2.687500 -2.937500 -9.600000 0 0 0 
2.750000 -2.937500 -9.600000 0 0 0 
2.812500 -2.937500 -9.600000 0 0 0 
2.875000 -2.937500 -9.600000 0 0 0 
2.937500 -2.937500 -9.600000 0 0 0 
3.000000 -2.937500 -9.600000 0 0 0 
3.062500 -2.937500 -9.600000 0 0 0 
3.125000 -2.937500 -9.600000 0 0 0 
2.562500 -3.000000 -9.600000 0 0 0 
2.625000 -3.000000 -9.600000 0 0 0 
2.687500 -3.000000 -9.600000 0 0 0 
2.750000 -3.000000 -9.600000 0 0 0 
2.812500 -3.000000 -9.600000 0 0 0 
2.875000 -3.000000 -9.600000 0 0 0 
2.937500 -3.000000 -9.600000 0 0 0 
3.000000 -3.000000 -9.600000 0 0 0 
3.062500 -3.000000 -9.600000 0 0 0 
3.125000 -3.000000 -9.600000 0 0 0 
2.500000 -3.062500 -9.600000 0 0 0 
2.562500 -3.062500 -9.600000 0 0 0 
2.625000 -3.062500 -9.600000 0 0 0 
2.687500 -3.062500 -9.600000 0 0 0 
2.750000 -3.062500 -9.600000 0 0 0 
2.812500 -3.062500 -9.600000 0 0 0 
2.875000 -3.062500 -9.600000 0 0 0 
2.937500 -3.062500 -9.600000 0 0 0 
3.000000 -3.062500 -9.600000 0 0 0 
3.062500 -3.062500 -9.600000 0 0 0 
2.437500 -3.125000 -9.600000 0 0 0 
2.500000 -3.125000 -9.600000 0 0 0 
2.562500 -3.125000 -9.600000 0 0 0 
2.625000 -3.125000 -9.600000 0 0 0 
2.687500 -3.125000 -9.600000 0 0 0 
2.750000 -3.125000 -9.600000 0 0 0 
2.812500 -3.125000 -9.600000 0 0 0 
2.875000 -3.125000 -9.600000 0 0 0 
2.937500 -3.125000 -9.600000 0 0 0 
3.000000 -3.125000 -9.600000 0 0 0 
2.437500 -3.187500 -9.600000 0 0 0 
2.500000 -3.187500 -9.600000 0 0 0 
2.562500 -3.187500 -9.600000 0 0 0 
2.625000 -3.187500 -9.600000 0 0 0 
2.687500 -3.187500 -9.600000 0 0 0 
2.750000 -3.187500 -9.600000 0 0 0 
2.812500 -3.187500 -9.600000 0 0 0 
2.875000 -3.187500 -9.600000 0 0 0 
2.937500 -3.187500 -9.600000 0 0 0 
3.000000 -3.187500 -9.600000 0 0 0 
2.437500 -3.250000 -9.600000 0 0 0 
2.500000 -3.250000 -9.600000 0 0 0 
2.562500 -3.250000 -9.600000 0 0 0 
2.625000 -3.250000 -9.600000 0 0 0 
2.687500 -3.250000 -9.600000 0 0 0 
2.750000 -3.250000 -9.600000 0 0 0 
2.812500 -3.250000 -9.600000 0 0 0 
2.875000 -3.250000 -9.600000 0 0 0 
2.937500 -3.250000 -9.600000 0 0 0 
3.000000 -3.250000 -9.600000 0 0 0 
2.437500 -3.312500 -9.600000 0 0 0 
2.500000 -3.312500 -9.600000 0 0 0 
2.562500 -3.312500 -9.600000 0 0 0 
2.625000 -3.312500 -9.600000 0 0 0 
2.687500 -3.312500 -9.600000 0 0 0 
2.750000 -3.312500 -9.600000 0 0 0 
2.812500 -3.312500 -9.600000 0 0 0 
2.875000 -3.312500 -9.600000 0 0 0 
2.937500 -3.312500 -9.600000 0 0 0 
3.000000 -3.312500 -9.600000 0 0 0 
2.437500 -3.375000 -9.600000 0 0 0 
2.500000 -3.375000 -9.600000 0 0 0 
2.562500 -3.375000 -9.600000 0 0 0 
2.625000 -3.375000 -9.600000 0 0 0 
2.687500 -3.375000 -9.600000 0 0 0 
2.750000 -3.375000 -9.600000 0 0 0 
2.812500 -3.375000 -9.600000 0 0 0 
2.875000 -3.375000 -9.600000 0 0 0 
2.937500 -3.375000 -9.600000 0 0 0 
3.000000 -3.375000 -9.600000 0 0 0 
2.437500 -3.437500 -9.600000 7 7 7 
2.500000 -3.437500 -9.600000 7 7 7 
2.562500 -3.437500 -9.600000 7 7 7 
2.625000 -3.437500 -9.600000 7 7 7 
2.687500 -3.437500 -9.600000 7 7 7 
2.750000 -3.437500 -9.600000 7 7 7 
2.812500 -3.437500 -9.600000 7 7 7 
2.875000 -3.437500 -9.600000 7 7 7 
2.937500 -3.437500 -9.600000 7 7 7 
3.000000 -3.437500 -9.600000 7 7 7 
2.437500 -3.500000 -9.600000 13 13 13 
2.500000 -3.500000 -9.600000 13 13 13 
2.562500 -3.500000 -9.600000 13 13 13 
2.625000 -3.500000 -9.600000 13 13 13 
2.687500 -3.500000 -9.600000 13 13 13 
2.750000 -3.500000 -9.600000 13 13 13 
2.812500 -3.500000 -9.600000 13 13 13 
2.875000 -3.500000 -9.600000 13 13 13 
2.937500 -3.500000 -9.600000 13 13 13 
2.437500 -3.562500 -9.600000 1 1 1 
2.500000 -3.562500 -9.600000 1 1 1 
2.562500 -3.562500 -9.600000 1 1 1 
2.625000 -3.562500 -9.600000 1 1 1 
2.687500 -3.562500 -9.600000 1 1 1 
2.750000 -3.562500 -9.600000 1 1 1 
2.812500 -3.562500 -9.600000 1 1 1 
2.875000 -3.562500 -9.600000 1 1 1 
2.937500 -3.562500 -9.600000 2 2 2 
2.375000 -3.625000 -9.600000 0 0 0 
2.437500 -3.625000 -9.600000 0 0 0 
2.500000 -3.625000 -9.600000 0 0 0 
2.562500 -3.625000 -9.600000 0 0 0 
2.625000 -3.625000 -9.600000 0 0 0 
2.687500 -3.625000 -9.600000 0 0 0 
2.750000 -3.625000 -9.600000 0 0 0 
2.812500 -3.625000 -9.600000 0 0 0 
2.875000 -3.625000 -9.600000 0 0 0 
2.437500 -3.687500 -9.600000 0 0 0 
2.500000 -3.687500 -9.600000 0 0 0 
2.562500 -3.687500 -9.600000 0 0 0 
2.625000 -3.687500 -9.600000 0 0 0 
2.687500 -3.687500 -9.600000 0 0 0 
2.750000 -3.687500 -9.600000 0 0 0 
2.812500 -3.687500 -9.600000 0 0 0 
2.500000 -3.750000 -9.600000 0 0 0 
2.562500 -3.750000 -9.600000 0 0 0 
2.625000 -3.750000 -9.600000 0 0 0 
